<?xml version="1.0" standalone="no"?>
<!DOCTYPE svg PUBLIC "-//W3C//DTD SVG 20010904//EN"
 "http://www.w3.org/TR/2001/REC-SVG-20010904/DTD/svg10.dtd">
<svg version="1.0" xmlns="http://www.w3.org/2000/svg"
 width="800.000000pt" height="800.000000pt" viewBox="0 0 800.000000 800.000000"
 preserveAspectRatio="xMidYMid meet">
<metadata>
Created by potrace 1.11, written by Peter Selinger 2001-2013
</metadata>
<g transform="translate(0.000000,800.000000) scale(0.100000,-0.100000)"
fill="#000000" stroke="none">
<path d="M5815 6544 c-11 -8 -25 -12 -33 -9 -9 3 -10 0 -4 -11 10 -18 -6 -74
-21 -74 -4 0 -5 5 -1 12 4 7 3 8 -4 4 -18 -11 -14 -31 12 -59 40 -43 44 -57
34 -96 -15 -56 -33 -71 -71 -59 -18 5 -39 11 -47 13 -8 2 -15 4 -15 5 0 1 -11
3 -24 6 -41 7 -87 -14 -106 -49 -16 -30 -16 -36 -2 -63 8 -16 23 -36 33 -45
27 -24 147 -69 183 -69 76 0 197 69 246 142 16 24 26 57 31 101 6 57 4 67 -15
86 -11 11 -18 21 -15 21 4 0 0 7 -7 16 -14 17 -15 20 -17 60 -1 14 -11 24 -27
28 -14 4 -23 11 -20 16 3 6 -2 10 -11 10 -10 0 -26 7 -36 17 -13 11 -18 12
-18 3 0 -9 -4 -9 -13 -2 -8 7 -18 6 -32 -4z"/>
<path d="M1996 6469 c-11 -10 -28 -19 -38 -19 -10 0 -18 -7 -18 -15 0 -7 -7
-18 -16 -23 -9 -5 -16 -13 -16 -18 0 -5 -4 -18 -8 -29 -14 -39 -20 -105 -10
-105 5 0 10 -7 10 -16 0 -8 -4 -12 -10 -9 -15 10 -12 -46 5 -79 8 -15 15 -34
15 -41 0 -7 7 -15 15 -19 8 -3 15 -12 15 -19 0 -8 7 -20 16 -28 13 -10 17 -10
25 2 7 12 9 11 9 -2 0 -21 21 -38 51 -41 13 -2 27 -7 30 -11 9 -12 83 -21 113
-13 14 3 26 14 26 22 0 10 6 14 14 11 10 -4 13 2 12 19 0 13 -4 24 -8 24 -5 0
-8 4 -8 10 0 5 13 7 30 4 18 -4 30 -2 30 4 0 6 3 19 6 29 6 16 5 15 -9 -2 -15
-20 -16 -20 -23 -1 -5 12 -3 21 4 24 15 5 16 42 2 42 -6 0 -22 11 -34 25 -13
14 -28 25 -32 23 -5 -1 -24 1 -43 5 -29 6 -32 10 -26 29 26 86 28 101 16 120
-6 10 -9 24 -5 31 4 7 4 9 -1 5 -13 -12 -35 25 -24 39 10 12 -7 30 -18 19 -3
-3 -11 -2 -17 3 -25 19 -61 19 -80 0z m264 -319 c0 -5 -2 -10 -4 -10 -3 0 -8
5 -11 10 -3 6 -1 10 4 10 6 0 11 -4 11 -10z"/>
<path d="M2255 6040 c3 -5 8 -10 11 -10 2 0 4 5 4 10 0 6 -5 10 -11 10 -5 0
-7 -4 -4 -10z"/>
<path d="M3441 4452 c-39 -15 -48 -25 -78 -82 -57 -113 -65 -256 -16 -306 17
-16 97 -55 111 -53 4 1 9 0 12 -1 20 -9 79 -6 100 6 78 43 114 102 129 207 16
116 -13 189 -94 233 -31 16 -115 14 -164 -4z"/>
<path d="M4567 4455 c-8 -5 -25 -17 -37 -25 -84 -58 -80 -280 7 -366 52 -52
123 -75 160 -51 6 4 17 5 25 2 7 -2 36 8 63 23 44 24 52 33 66 78 17 53 15 90
-14 191 -20 69 -52 120 -88 138 -16 9 -29 13 -29 9 0 -4 -6 -1 -14 5 -16 14
-118 11 -139 -4z"/>
<path d="M6660 3835 c-25 -14 -56 -31 -70 -37 -14 -7 -28 -17 -32 -23 -4 -6
-31 -21 -60 -34 -29 -13 -78 -36 -109 -52 -31 -16 -63 -29 -72 -29 -8 0 -20
-7 -27 -15 -7 -8 -16 -13 -20 -10 -5 3 -11 1 -15 -5 -3 -5 -16 -10 -29 -10
-12 0 -26 -3 -30 -7 -11 -11 -99 -43 -118 -43 -10 0 -18 -5 -18 -11 0 -6 -6
-9 -14 -6 -8 3 -52 -7 -98 -24 -45 -16 -94 -29 -108 -29 -14 0 -31 -5 -38 -12
-7 -7 -12 -9 -12 -6 0 4 -15 2 -32 -3 -32 -9 -73 -16 -153 -23 -44 -4 -137
-27 -145 -36 -3 -3 -16 -6 -30 -7 -31 -2 -61 -8 -80 -15 -17 -7 -62 -17 -105
-23 -16 -2 -56 -11 -88 -18 -31 -8 -79 -13 -105 -11 -30 2 -68 -4 -107 -18
-41 -14 -90 -22 -155 -24 -52 -2 -129 -5 -170 -8 -41 -2 -103 -6 -138 -7 -34
-1 -65 -5 -67 -9 -2 -3 -119 -6 -260 -5 -141 1 -258 -1 -260 -5 -3 -4 -77 -7
-166 -6 -88 1 -163 -2 -166 -7 -3 -5 -12 -5 -22 -2 -9 4 -61 11 -116 16 -136
12 -174 18 -214 31 -19 6 -59 12 -90 13 -31 2 -67 6 -81 9 -61 14 -190 36
-240 42 -30 3 -59 8 -65 12 -5 3 -33 7 -62 7 -28 0 -54 3 -58 7 -4 4 -13 4
-20 2 -7 -3 -16 -1 -20 5 -3 6 -17 11 -29 11 -13 0 -40 7 -61 16 -20 8 -47 14
-59 13 -11 0 -24 0 -28 1 -5 1 -11 3 -15 5 -5 1 -15 4 -23 8 -8 3 -37 12 -65
21 -56 16 -137 44 -175 59 -14 5 -36 11 -49 13 -14 2 -37 12 -52 24 -16 11
-34 20 -41 20 -7 1 -31 14 -53 30 -22 16 -50 35 -63 42 -13 6 -38 26 -57 44
-55 51 -131 52 -168 1 -22 -29 -28 -107 -10 -129 6 -7 14 -33 17 -58 4 -25 11
-54 15 -65 21 -52 41 -124 46 -164 3 -24 10 -51 15 -61 5 -9 7 -19 5 -22 -3
-2 0 -20 6 -39 10 -31 14 -55 23 -144 10 -90 27 -130 52 -121 7 3 15 -2 18
-10 14 -36 98 5 122 61 10 22 24 56 33 76 9 19 31 54 49 76 17 23 32 45 32 50
0 17 56 76 67 70 5 -3 10 -21 11 -38 0 -18 5 -35 10 -38 5 -3 9 -13 9 -21 1
-23 34 -151 49 -186 8 -17 25 -72 38 -121 28 -105 46 -136 87 -153 26 -11 36
-10 64 3 39 19 70 60 61 82 -3 8 -2 15 3 15 4 0 14 12 22 28 8 15 24 35 37 45
12 10 22 25 22 32 0 13 25 55 67 115 10 14 27 43 38 65 19 39 20 39 26 15 11
-47 23 -75 52 -130 17 -30 38 -72 48 -92 11 -20 27 -43 36 -50 10 -7 29 -33
42 -58 13 -25 30 -52 37 -61 8 -8 14 -20 14 -25 0 -16 71 -84 87 -84 32 0 98
48 116 84 46 96 98 236 91 247 -3 5 0 9 5 9 6 0 11 7 11 15 0 25 17 17 30 -15
7 -16 15 -30 19 -30 4 0 8 -12 9 -26 1 -15 6 -32 11 -38 5 -6 12 -21 16 -34 3
-12 24 -52 46 -88 22 -36 43 -73 46 -82 18 -56 59 -132 70 -132 7 0 13 -6 13
-14 0 -9 17 -17 52 -21 46 -7 53 -5 70 16 32 41 78 110 78 117 0 4 9 18 20 32
11 14 20 35 20 46 0 12 7 27 15 34 8 7 12 16 10 21 -3 4 5 25 18 46 13 21 32
65 42 98 16 51 20 57 29 41 6 -11 32 -48 59 -83 26 -35 47 -66 47 -68 0 -4 53
-64 108 -124 17 -19 32 -41 32 -48 0 -20 38 -35 96 -38 42 -3 54 0 54 11 0 8
6 14 13 14 15 0 87 146 87 177 0 12 4 24 9 28 5 3 15 31 22 63 14 64 35 112
49 112 6 0 10 -7 10 -15 0 -8 9 -24 20 -35 11 -11 20 -23 20 -27 0 -13 41 -62
107 -130 34 -35 79 -90 100 -121 34 -51 42 -57 76 -60 42 -3 98 25 131 66 26
33 56 93 56 112 0 9 6 24 13 35 8 11 22 53 31 93 10 40 24 85 32 100 7 15 14
38 15 52 1 20 2 21 6 6 8 -32 51 -94 73 -106 11 -6 20 -17 20 -24 0 -8 12 -21
26 -31 31 -20 144 -129 144 -139 0 -9 47 -56 56 -56 3 0 21 -7 39 -16 26 -12
38 -13 54 -4 12 6 25 8 30 5 11 -6 71 73 71 93 0 8 7 35 15 61 8 25 26 99 40
164 15 64 31 117 36 117 5 0 9 -6 9 -13 0 -15 106 -160 120 -165 6 -2 10 -10
10 -17 0 -19 69 -89 108 -109 17 -9 46 -23 63 -32 26 -14 38 -15 71 -5 38 12
41 15 68 86 20 50 49 145 60 195 7 30 20 80 30 110 10 30 23 74 30 98 7 23 16
42 20 42 4 0 24 -25 44 -55 20 -30 41 -55 46 -55 6 0 10 -6 10 -13 0 -8 11
-24 24 -37 14 -12 28 -36 31 -52 4 -16 13 -32 21 -35 8 -3 14 -10 14 -17 0
-19 50 -87 63 -84 7 1 25 -1 40 -5 23 -6 35 -2 60 19 18 15 32 32 32 38 0 6 4
17 8 24 5 6 6 12 2 12 -3 0 1 12 9 28 8 15 18 50 22 77 4 28 9 52 9 55 3 11
17 47 31 78 8 18 14 43 14 55 0 12 6 34 14 49 8 15 17 41 21 59 4 18 17 54 28
79 11 25 21 52 22 60 1 8 6 26 10 40 13 38 16 53 16 73 0 10 5 31 11 45 15 36
17 62 6 68 -5 3 -13 17 -18 30 -8 19 -64 54 -89 54 -3 0 -26 -11 -51 -25z
m-40 -237 c0 -7 -7 -26 -15 -41 -8 -16 -16 -43 -18 -60 -2 -18 -9 -42 -15 -54
-21 -38 -62 -167 -62 -194 0 -14 -7 -34 -15 -45 -15 -19 -15 -19 -30 1 -9 11
-22 28 -30 38 -8 9 -15 21 -15 26 0 5 -7 11 -15 14 -8 4 -21 23 -30 43 -8 20
-23 43 -33 50 -9 7 -14 14 -9 14 4 0 -2 9 -13 20 -35 35 -20 80 26 80 12 0 24
4 26 9 3 9 156 84 173 85 6 1 16 7 23 14 7 6 22 12 33 12 10 0 19 -6 19 -12z
m-4738 -138 c11 0 26 -7 32 -14 6 -8 34 -24 61 -34 38 -15 49 -24 47 -39 -2
-10 -8 -19 -13 -21 -5 -2 -9 -9 -9 -15 0 -7 -25 -38 -54 -70 -55 -60 -62 -61
-71 -7 -10 56 -26 122 -40 163 -20 58 -13 93 11 59 8 -12 25 -22 36 -22z
m4184 -89 c-14 -75 -21 -100 -36 -127 -10 -17 -21 -50 -25 -75 -4 -24 -13 -64
-20 -89 -8 -25 -20 -65 -26 -89 -7 -24 -19 -46 -27 -48 -17 -7 -68 47 -87 93
-8 19 -21 34 -29 34 -9 0 -16 6 -16 13 0 6 -9 23 -20 37 -11 14 -20 33 -20 43
0 9 -3 17 -7 17 -5 0 -8 28 -8 61 0 56 2 63 29 83 20 15 30 17 33 9 4 -10 11
-9 33 2 16 8 40 15 54 15 14 0 27 4 30 9 3 4 16 7 28 4 13 -2 37 5 53 15 34
21 66 18 61 -7z m-3675 -96 c30 -4 66 -8 80 -9 63 -6 110 -42 79 -61 -5 -3
-21 -29 -35 -58 -15 -28 -30 -54 -34 -57 -15 -11 -51 -69 -51 -82 0 -8 -11
-27 -24 -43 l-24 -28 -21 41 c-12 23 -21 53 -21 67 0 14 -5 25 -11 25 -6 0 -9
9 -6 20 3 11 1 23 -5 26 -5 3 -7 16 -4 27 3 12 1 26 -4 31 -11 14 -28 108 -22
124 3 10 9 10 26 -1 12 -8 47 -18 77 -22z m3067 -21 c17 -5 22 -13 22 -38 -1
-34 -21 -125 -39 -169 -6 -16 -11 -41 -11 -56 0 -15 -3 -31 -7 -35 -5 -4 -12
-26 -18 -49 -5 -22 -16 -42 -23 -45 -6 -2 -34 19 -60 47 -27 28 -53 51 -58 51
-14 0 -89 83 -91 100 0 8 -11 39 -24 68 -27 61 -22 70 41 76 73 7 210 38 210
47 0 10 25 11 58 3z m-2587 -61 c8 -7 39 -11 72 -10 31 2 57 0 57 -3 0 -10 64
-30 93 -30 37 0 35 -28 -8 -114 -19 -37 -35 -75 -35 -82 0 -8 -4 -22 -9 -32
-5 -9 -18 -36 -28 -59 -10 -23 -20 -42 -23 -43 -6 0 -82 112 -108 161 -11 20
-25 45 -30 55 -6 11 -13 31 -17 47 -3 15 -12 27 -19 27 -9 0 -14 13 -14 42 -1
23 1 45 3 48 6 10 51 6 66 -7z m2005 -76 c-9 -46 -11 -56 -18 -63 -4 -3 -4
-12 -2 -19 3 -7 -4 -27 -15 -45 -10 -18 -17 -39 -14 -46 3 -8 0 -21 -6 -28 -7
-8 -13 -25 -15 -38 -4 -36 -40 -108 -53 -108 -7 0 -20 11 -29 25 -9 14 -19 24
-21 21 -2 -2 -23 17 -46 42 -23 26 -44 49 -47 52 -24 23 -122 211 -114 219 2
2 35 5 73 5 38 1 72 3 75 6 2 3 57 6 121 7 l117 3 -6 -33z m-659 3 c59 0 74
-14 56 -53 -6 -12 -21 -44 -34 -72 -13 -27 -22 -54 -21 -59 2 -6 -1 -19 -6
-30 -6 -12 -18 -48 -27 -81 -27 -91 -32 -94 -77 -45 -21 22 -38 45 -38 50 0 6
-6 10 -13 10 -7 0 -21 15 -30 33 -21 41 -40 71 -49 77 -3 3 -10 18 -13 33 -4
15 -11 30 -16 33 -5 3 -9 14 -9 25 0 10 -6 28 -12 39 -20 32 4 40 120 40 80 0
102 3 96 13 -6 10 -4 10 7 0 7 -7 37 -13 66 -13z m-747 -12 c0 -4 46 -6 103
-3 135 5 142 0 116 -80 -11 -33 -28 -77 -39 -98 -11 -22 -20 -49 -20 -62 0
-13 -7 -25 -15 -29 -8 -3 -15 -13 -15 -22 0 -22 -52 -134 -63 -134 -4 0 -11 8
-14 18 -4 9 -21 41 -40 70 -18 29 -33 57 -33 62 0 6 -5 10 -11 10 -5 0 -8 4
-5 9 7 11 -19 63 -27 54 -4 -3 -7 3 -7 15 0 11 -5 24 -10 27 -6 4 -8 11 -5 16
4 5 1 9 -4 9 -6 0 -14 18 -17 40 -4 22 -11 43 -15 46 -11 6 -12 48 -2 58 9 9
123 3 123 -6z"/>
<path d="M3282 1800 c-7 -11 -21 -20 -33 -20 -14 0 -19 -5 -17 -17 2 -10 -1
-22 -7 -28 -6 -5 -26 -48 -44 -95 -18 -47 -42 -102 -53 -122 -10 -21 -17 -42
-13 -47 3 -5 1 -12 -5 -16 -6 -4 -8 -11 -4 -16 3 -5 -2 -21 -10 -34 -9 -14
-13 -25 -9 -26 5 0 -12 -9 -37 -19 -25 -10 -41 -19 -36 -19 9 -1 -45 -51 -55
-51 -3 0 -11 -16 -19 -35 -8 -22 -17 -31 -21 -23 -4 6 -7 -5 -6 -25 0 -20 5
-33 11 -30 5 3 6 2 3 -4 -3 -5 -19 -8 -35 -5 -21 3 -36 -3 -53 -20 -13 -13
-51 -41 -84 -63 -33 -22 -62 -42 -65 -45 -9 -9 -154 -115 -219 -159 -57 -40
-64 -42 -73 -27 -6 10 -19 25 -29 34 -10 9 -19 21 -19 27 0 7 -11 22 -25 35
-14 13 -25 29 -25 35 0 7 -9 23 -19 37 -11 14 -19 39 -19 57 1 17 -4 37 -10
43 -7 7 -12 19 -12 28 0 18 -35 35 -103 50 -48 10 -50 10 -86 -23 -21 -19 -53
-37 -72 -41 -34 -6 -65 -38 -54 -56 4 -6 1 -10 -4 -10 -29 0 16 -94 68 -144
23 -22 41 -43 41 -48 0 -4 9 -17 20 -28 11 -11 20 -28 20 -38 0 -9 15 -40 33
-67 17 -28 43 -72 57 -99 13 -26 30 -51 37 -53 7 -3 13 -11 13 -19 0 -8 5 -14
10 -14 5 0 19 -9 30 -20 12 -12 25 -18 30 -15 5 3 11 -5 13 -17 3 -13 4 -6 4
14 -1 21 2 40 6 44 4 4 7 2 7 -4 0 -7 7 -12 15 -12 8 0 15 5 15 11 0 5 10 9
23 7 14 -2 21 2 19 10 -1 8 2 11 7 8 5 -4 12 0 14 6 3 7 6 4 6 -6 1 -20 1 -20
17 0 8 10 12 13 8 5 -5 -10 -3 -12 7 -5 8 5 22 7 32 6 9 -2 17 2 17 8 0 7 7
10 15 6 8 -3 21 1 29 9 7 8 17 11 20 7 4 -3 4 1 1 10 -6 15 -37 15 -32 0 1 -4
-1 -8 -5 -10 -19 -6 -28 -1 -28 16 0 13 2 14 9 4 6 -10 10 -10 21 3 7 9 19 14
26 11 7 -3 16 -1 20 5 3 6 11 8 18 6 6 -3 21 2 31 10 16 11 17 16 7 22 -11 7
-11 9 2 14 9 4 16 2 16 -3 0 -6 5 -10 11 -10 6 0 8 7 5 16 -3 8 -2 13 3 10 5
-3 11 1 15 9 3 8 16 15 28 15 13 0 37 13 55 28 39 33 86 67 93 67 10 0 55 35
55 43 0 4 6 7 13 7 7 0 17 6 21 13 5 8 11 12 14 10 3 -1 17 7 30 19 14 12 36
27 49 34 12 7 39 27 58 46 19 18 44 33 55 33 11 0 33 7 49 15 15 8 35 15 42
15 15 0 27 10 94 73 25 24 46 37 56 33 8 -3 12 -2 9 4 -3 6 0 10 8 10 8 0 21
14 29 31 15 30 170 169 189 169 13 0 59 46 59 60 0 6 5 19 12 30 10 15 9 22
-5 38 -9 10 -14 21 -11 25 11 11 -43 37 -87 42 -55 6 -95 -7 -161 -51 -28 -19
-53 -33 -55 -31 -2 3 4 24 13 48 17 43 21 160 6 183 -4 6 -5 19 -4 28 3 15 -1
17 -22 8 -30 -11 -32 -8 -11 14 14 13 13 15 -2 14 -10 -1 -27 2 -38 5 -14 5
-24 1 -33 -13z m-807 -1180 c-3 -5 -14 -10 -23 -9 -14 0 -13 2 3 9 27 11 27
11 20 0z"/>
<path d="M5952 1620 c-18 -10 -49 -28 -70 -41 -20 -13 -53 -32 -73 -42 -35
-18 -59 -52 -59 -83 0 -8 -6 -24 -12 -35 -14 -23 -95 -106 -108 -111 -11 -4
-170 -149 -194 -177 -12 -13 -29 -31 -39 -40 -10 -9 -39 -35 -65 -58 -26 -24
-52 -43 -59 -43 -7 0 -13 -4 -13 -10 0 -5 -4 -10 -10 -10 -5 0 -18 -8 -28 -17
-9 -10 -29 -26 -42 -36 -14 -10 -19 -15 -12 -12 6 3 12 1 12 -5 0 -6 -11 -16
-25 -22 -14 -6 -25 -15 -25 -20 0 -15 -26 -8 -40 11 -7 11 -17 18 -22 15 -4
-3 -5 2 -2 10 3 9 -5 25 -20 40 -19 16 -23 26 -14 29 10 3 10 8 1 23 -18 29
-71 136 -77 159 -28 92 -161 114 -227 39 -20 -23 -35 -94 -19 -94 5 0 10 -7
10 -15 0 -8 6 -15 13 -15 8 0 21 -18 30 -41 11 -27 20 -38 28 -33 8 4 9 3 5
-5 -5 -7 3 -29 18 -52 23 -35 30 -57 16 -52 -10 3 -115 16 -130 16 -35 0 -85
-13 -88 -23 -2 -6 -10 -16 -17 -24 -16 -16 -14 -44 4 -56 8 -4 10 -13 7 -19
-4 -6 -1 -11 6 -11 10 0 9 -3 -1 -9 -12 -8 -10 -11 10 -16 46 -11 109 -12 109
-2 0 5 8 3 18 -6 10 -9 41 -21 70 -27 28 -5 90 -25 139 -43 83 -32 160 -46
148 -27 -3 4 9 13 26 19 32 11 66 35 134 94 24 21 59 42 78 48 18 5 57 32 85
59 28 28 57 50 63 50 7 0 27 11 45 25 18 14 37 25 43 25 5 0 13 9 16 20 3 11
11 20 16 20 5 0 9 10 9 23 0 25 14 42 78 97 23 19 42 41 42 48 0 6 5 12 11 12
6 0 27 16 47 35 20 19 40 35 43 35 3 0 20 14 38 30 29 29 33 30 59 16 15 -8
48 -32 74 -55 25 -23 51 -41 57 -41 6 0 11 -4 11 -9 0 -17 234 -182 285 -201
14 -5 33 -7 42 -3 36 12 73 57 79 95 4 21 10 35 15 32 5 -3 9 5 9 18 0 13 3
33 6 44 7 26 -21 55 -118 120 -42 28 -73 57 -83 78 -17 35 -19 37 -109 126
-31 29 -56 60 -56 67 0 8 -7 16 -15 19 -8 4 -15 12 -15 20 0 7 -6 11 -13 9 -7
-3 -30 4 -52 15 -46 24 -59 24 -103 0z m-1224 -822 c-8 -4 -15 -1 -19 10 -10
26 2 37 18 17 10 -15 10 -20 1 -27z"/>
</g>
</svg>
